# xmcd CD database file
#
# Track frame offsets:
#	150
#	56100
#	121807
#	160295
#
# Disc length: 3038 seconds
#
# Revision: 0
# Processed by: cddbd v1.5.1PL2 Copyright (c) Steve Scherf et al.
# Submitted via: CDex 1.60beta1
#
DISCID=2f0bdc04
DTITLE=Stan Getz - Stan Meets Chet
DYEAR=1958
DGENRE=Jazz
TTITLE0=I'll Remember April
TTITLE1=Medley
TTITLE2=Jordu
TTITLE3=Half Breed Apache
EXTD=YEAR: 1958
EXTT0=
EXTT1=
EXTT2=
EXTT3=
PLAYORDER=
